<svg t="1575532905463" class="icon" viewBox="0 0 600 200" version="1.1" 
  xmlns="http://www.w3.org/2000/svg"  xmlns:xlink="http://www.w3.org/1999/xlink" p-id="4792" width="600" height="200">
  <symbol id="0" viewBox="0 0 1078 1024">
    <path id="star0" d="M1077.642657 393.698784c-6.22638 5.268475-13.410664 9.579046-19.158092 15.326473-79.985033 77.590271-159.491113 155.180543-239.476146 232.770814-8.142189 8.142189-10.53695 14.847521-8.142189 26.342376 19.637044 111.116932 38.795136 222.712816 57.953227 333.829747 0.957905 5.747428 1.436857 11.973807 2.873714 21.073901-7.663237-3.831618-12.931712-6.705332-18.200187-9.579046-99.143124-52.2058-198.286249-103.932647-296.950421-156.617399-12.45276-6.705332-22.031805-6.705332-34.484565 0-100.579981 53.163704-201.159963 105.848457-301.739944 159.012161-3.831618 1.915809-7.184284 3.831618-13.889616 7.663237 5.268475-31.131899 9.579046-59.390084 14.368569-87.169317 15.805426-91.479888 31.610851-182.480823 46.937325-273.960711 0.957905-4.789523-0.957905-12.45276-4.310571-15.326473C177.212348 562.768943 91.000935 478.952292 4.789523 395.135641c-0.957905-0.957905-3.352666-0.957905-4.789523-1.436857 0-1.436857 0-2.394761 0-3.831618 119.259121-17.242283 238.997194-34.484565 358.256314-51.726848 10.53695-1.436857 16.284378-6.22638 21.073901-15.805426 49.332086-101.058934 99.143124-201.638915 148.954163-302.697848 2.873714-5.747428 5.747428-11.494855 10.057998-19.637044 3.831618 6.22638 6.22638 10.53695 8.621141 14.847521 50.289991 102.49579 101.058934 204.512629 151.348924 307.487371 4.789523 9.579046 10.53695 14.368569 21.073901 15.805426 119.259121 16.76333 238.997194 34.484565 358.256314 51.726848C1077.642657 391.304022 1077.642657 392.261927 1077.642657 393.698784zM304.134705 887.977549c6.705332-3.352666 10.53695-4.789523 13.889616-6.705332 67.053321-35.44247 134.585594-70.405987 201.638915-106.327409 13.410664-7.184284 23.947615-7.663237 37.837231-0.478952 65.137512 35.44247 131.232928 69.448082 196.849392 103.932647 5.268475 2.873714 11.015903 5.268475 18.679139 9.100094-0.957905-7.663237-0.957905-11.494855-1.436857-15.805426-12.931712-76.632367-25.863424-153.264733-39.75304-229.418148-1.915809-11.973807 0.957905-18.679139 8.621141-26.342376 54.600561-52.684752 109.201123-105.848457 163.322732-159.012161 4.310571-4.310571 8.142189-9.100094 13.889616-14.847521-84.774556-12.45276-165.717493-24.905519-246.66043-35.921422-11.973807-1.436857-17.242283-6.705332-22.031805-16.76333-33.047708-68.011225-66.574369-135.064546-99.622077-203.075772-2.873714-5.747428-5.747428-11.015903-10.53695-19.637044-4.310571 8.142189-7.184284 13.889616-10.057998 19.637044-33.52666 68.011225-67.053321 136.501403-100.579981 204.512629-4.310571 8.621141-8.621141 13.410664-19.637044 14.847521-39.75304 4.789523-79.50608 11.015903-118.780168 17.242283-42.147802 6.22638-84.295603 12.45276-126.922357 18.679139-1.436857 1.915809-2.394761 3.831618-3.831618 5.747428 5.268475 3.831618 11.494855 6.705332 15.805426 11.015903 54.600561 52.684752 109.201123 105.848457 162.843779 159.491113 5.268475 5.268475 8.621141 15.805426 7.184284 22.510758-8.621141 56.037418-18.679139 112.074836-28.258185 168.112254C312.755847 833.85594 308.924228 859.719364 304.134705 887.977549z" p-id="4793"></path>
  </symbol>
  <symbol id="1" viewBox="0 0 1078 1024">
    <path id="star1" d="M0 390.049602c119.314927-17.250351 239.109031-34.500702 358.423959-51.751053 10.541881-1.437529 16.291998-6.229293 21.083762-15.812822 49.355171-101.106224 99.189518-201.733271 149.023865-302.839495 2.875058-5.750117 5.750117-11.500234 10.062705-19.646233 3.833411 6.229293 6.229293 10.541881 8.625175 14.854469 50.313524 102.543753 101.106224 204.608329 151.419747 307.631259 4.791764 9.583528 10.541881 14.375292 21.083762 15.812822 119.314927 16.771175 239.109031 34.500702 358.423959 51.751053 0 1.437529 0 2.395882 0 3.833411-1.437529 0.479176-3.833411 0.479176-4.791764 1.437529-86.251755 83.855873-172.50351 167.711745-258.276088 252.046795-3.354235 3.354235-4.791764 10.541881-4.312588 15.812822 13.896116 83.855873 28.271409 167.232569 42.646701 251.088442 6.229293 35.459055 11.97941 71.397286 18.68788 109.731399-10.541881-5.270941-17.729527-9.104352-25.39635-12.937763-97.272812-51.271876-195.024801-102.543753-292.297613-154.294806-11.500234-6.229293-20.125409-6.229293-31.146467 0-53.667759 28.750585-107.814693 57.021993-161.961628 85.293402-50.7927 26.833879-101.5854 53.188582-154.773982 81.459991 0.958353-8.625175 1.437529-15.333645 2.395882-21.562939 19.167057-111.168928 37.854937-222.817033 57.980346-333.985962 1.916706-11.97941-0.479176-18.68788-8.625175-26.354703-69.959757-67.563875-139.919513-136.086102-209.87927-204.129153C32.583996 422.633599 16.291998 408.737482 0 393.883014 0 392.445484 0 391.487131 0 390.049602zM542.427702 172.024333c-1.437529 0.479176-2.395882 0.479176-3.833411 0.958353 0 194.066448 0 387.65372 0.479176 581.720168 0 5.750117 6.229293 13.896116 11.500234 16.771175 52.230229 28.271409 104.460459 55.584464 157.169864 83.376696 21.083762 11.021058 42.167525 22.042115 65.167993 34.021526-0.479176-7.187646-0.479176-11.97941-0.958353-16.771175-12.937763-76.668226-25.875526-153.336453-39.771642-229.525503-1.916706-11.021058 0.479176-17.729527 8.145999-24.917174 54.626111-52.709406 108.773046-105.897988 163.399158-158.607394 4.312588-4.312588 11.500234-6.229293 17.729527-9.104352-1.916706-2.395882-3.833411-4.791764-5.750117-7.187646-2.875058-0.479176-5.270941-0.958353-8.145999-1.437529-79.064109-11.500234-158.607394-23.000468-237.671502-35.459055-6.70847-0.958353-14.854469-7.187646-18.208704-12.937763-16.771175-31.625643-32.10482-64.20964-47.917642-96.31446C582.678521 253.9635 562.553112 213.233505 542.427702 172.024333z" p-id="4914"></path>
  </symbol>
  <symbol id="2" viewBox="0 0 1078 1024">
    <path id="star2" d="M1077.13885 390.163628c0 1.436185 0 2.393642 0 3.829827-1.436185 0.478728-3.829827 0.478728-4.787284 1.436185-86.171108 83.777466-172.342216 167.554932-258.034596 251.811127-3.351099 3.351099-4.787284 10.532024-4.308555 15.798036 13.883123 83.777466 28.244974 167.076204 42.606826 250.85367 6.223469 35.4259 11.968209 71.330528 18.670407 109.628799-10.532024-5.266012-17.71295-9.095839-24.893876-12.925666-97.660589-51.702665-195.799906-102.926601-293.460496-154.629266-10.053296-5.266012-18.191678-5.266012-28.244974 0-43.085554 23.457691-86.649836 45.957924-130.214119 68.936886-61.755961 32.55353-123.511921 65.107059-188.140252 99.096774 0.957457-8.617111 1.436185-15.319308 2.393642-21.542777 19.149135-111.064984 37.819542-222.608696 57.926134-333.673679 1.914914-11.968209-0.478728-18.670407-8.617111-26.330061-81.862553-79.468911-163.725105-159.41655-245.587658-238.88546-3.829827-3.351099-8.138382-5.744741-12.446938-9.095839 0-1.436185 0-2.393642 0-3.829827 119.203366-17.234222 238.88546-34.468443 358.088827-51.702665 10.532024-1.436185 16.276765-6.223469 21.064049-15.798036 49.309023-101.011688 99.096774-201.544647 148.884525-302.556335 2.87237-6.223469 6.223469-11.968209 11.010753-20.106592 4.308555 8.138382 7.180926 13.404395 9.574568 18.670407C598.410472 119.682094 648.198223 221.172511 697.985975 322.662927c4.787284 9.574568 10.532024 14.361851 21.064049 15.798036C838.253389 355.695185 957.935484 372.929406 1077.13885 390.163628z" p-id="5035"></path>
  </symbol>
  <use xlink:href="#0" x="0" y="0" width="200" height="200"/>
  <use xlink:href="#1" x="200" y="0" width="200" height="200"/>
  <use xlink:href="#2" x="400" y="0" width="200" height="200"/>
</svg>

